<svg width="512" height="512" xmlns="http://www.w3.org/2000/svg">

 <g>
  <title>background</title>
  <rect fill="none" id="canvas_background" height="402" width="582" y="-1" x="-1"/>
 </g>
 <g>
  <title>Layer 1</title>
  <path fill="#ffffff" id="svg_1" d="m437,0l-362,0c-41.351562,0 -75,33.648438 -75,75l0,362c0,41.351562 33.648438,75 75,75l362,0c41.351562,0 75,-33.648438 75,-75l0,-362c0,-41.351562 -33.648438,-75 -75,-75zm-180,390c-74.441406,0 -135,-60.558594 -135,-135s60.558594,-135 135,-135s135,60.558594 135,135s-60.558594,135 -135,135zm150,-240c-24.8125,0 -45,-20.1875 -45,-45s20.1875,-45 45,-45s45,20.1875 45,45s-20.1875,45 -45,45zm0,0"/>
  <path fill="#ffffff" id="svg_2" d="m407,90c-8.277344,0 -15,6.722656 -15,15s6.722656,15 15,15s15,-6.722656 15,-15s-6.722656,-15 -15,-15zm0,0"/>
  <path fill="#ffffff" id="svg_3" d="m257,150c-57.890625,0 -105,47.109375 -105,105s47.109375,105 105,105s105,-47.109375 105,-105s-47.109375,-105 -105,-105zm0,0"/>
 </g>
</svg>