<svg width="201" height="60" viewBox="0 0 201 60" fill="none" xmlns="http://www.w3.org/2000/svg">
<path d="M193.556 1.2C195.214 1.2 196.805 1.86375 197.977 3.04523C199.15 4.22671 199.809 5.82914 199.809 7.5V52.5C199.809 54.1709 199.15 55.7733 197.977 56.9548C196.805 58.1363 195.214 58.8 193.556 58.8H7.44444C5.78596 58.8 4.1954 58.1363 3.02267 56.9548C1.84994 55.7733 1.19111 54.1709 1.19111 52.5V7.5C1.19111 5.82914 1.84994 4.22671 3.02267 3.04523C4.1954 1.86375 5.78596 1.2 7.44444 1.2H193.556ZM193.556 0H7.44444C5.47006 0 3.57653 0.790176 2.18043 2.1967C0.784323 3.60322 0 5.51088 0 7.5V52.5C0 54.4891 0.784323 56.3968 2.18043 57.8033C3.57653 59.2098 5.47006 60 7.44444 60H193.556C195.53 60 197.423 59.2098 198.82 57.8033C200.216 56.3968 201 54.4891 201 52.5V7.5C201 5.51088 200.216 3.60322 198.82 2.1967C197.423 0.790176 195.53 0 193.556 0Z" fill="white"/>
<path d="M101.453 32.625C100.203 32.6309 98.9824 33.0098 97.9457 33.7139C96.909 34.418 96.1026 35.4157 95.6283 36.5811C95.1539 37.7465 95.0328 39.0273 95.2803 40.262C95.5278 41.4966 96.1328 42.6297 97.019 43.5183C97.9051 44.4069 99.0326 45.0111 100.259 45.2546C101.486 45.4982 102.757 45.3702 103.911 44.8868C105.066 44.4034 106.052 43.5863 106.746 42.5386C107.44 41.4909 107.811 40.2596 107.811 39C107.823 38.1569 107.666 37.32 107.351 36.539C107.035 35.7581 106.567 35.0491 105.974 34.4543C105.381 33.8594 104.675 33.3909 103.898 33.0767C103.121 32.7624 102.29 32.6088 101.453 32.625ZM101.453 42.87C100.684 42.9242 99.9169 42.7441 99.251 42.3531C98.585 41.9621 98.0512 41.3783 97.719 40.6777C97.3867 39.977 97.2714 39.1918 97.3879 38.4242C97.5045 37.6566 97.8476 36.9421 98.3725 36.3736C98.8975 35.805 99.5801 35.4087 100.332 35.2362C101.083 35.0636 101.869 35.1228 102.586 35.4061C103.304 35.6894 103.921 36.1836 104.356 36.8246C104.791 37.4655 105.025 38.2235 105.026 39C105.05 39.492 104.976 39.9839 104.809 40.4466C104.641 40.9094 104.383 41.3336 104.05 41.6943C103.717 42.0549 103.316 42.3448 102.87 42.5467C102.424 42.7487 101.942 42.8586 101.453 42.87ZM87.5915 32.625C86.3407 32.628 85.1187 33.0044 84.0801 33.7067C83.0414 34.409 82.2327 35.4056 81.7561 36.5708C81.2794 37.7359 81.1562 39.0172 81.402 40.2529C81.6479 41.4885 82.2517 42.623 83.1373 43.5131C84.0228 44.4031 85.1503 45.0088 86.3774 45.2536C87.6045 45.4983 88.876 45.3712 90.0314 44.8883C91.1868 44.4053 92.1742 43.5882 92.8688 42.5402C93.5634 41.4922 93.9342 40.2602 93.9342 39C93.9463 38.1569 93.79 37.32 93.4744 36.539C93.1588 35.7581 92.6905 35.0491 92.0973 34.4543C91.5041 33.8594 90.7982 33.3909 90.0215 33.0767C89.2449 32.7624 88.4134 32.6088 87.5766 32.625H87.5915ZM87.5915 42.87C86.8223 42.9272 86.0537 42.7498 85.3859 42.3608C84.7182 41.9719 84.1821 41.3893 83.8475 40.6891C83.5129 39.9889 83.3953 39.2035 83.51 38.435C83.6247 37.6665 83.9664 36.9506 84.4906 36.3805C85.0148 35.8104 85.6973 35.4125 86.4491 35.2386C87.2009 35.0647 87.9872 35.1229 88.7057 35.4055C89.4243 35.6882 90.0417 36.1822 90.4777 36.8233C90.9136 37.4644 91.1479 38.2229 91.15 39C91.174 39.492 91.0999 39.9839 90.9322 40.4466C90.7645 40.9094 90.5065 41.3336 90.1735 41.6943C89.8404 42.0549 89.4391 42.3448 88.9931 42.5467C88.5471 42.7487 88.0655 42.8586 87.5766 42.87H87.5915ZM71.0798 34.59V37.29H77.5118C77.4109 38.5617 76.8862 39.7617 76.0229 40.695C75.3794 41.3554 74.6058 41.8727 73.7519 42.2137C72.898 42.5547 71.9827 42.7118 71.0649 42.675C69.1694 42.675 67.3517 41.9164 66.0114 40.5662C64.6711 39.2159 63.9182 37.3846 63.9182 35.475C63.9182 33.5654 64.6711 31.7341 66.0114 30.3838C67.3517 29.0336 69.1694 28.275 71.0649 28.275C72.878 28.2452 74.6289 28.9411 75.9335 30.21L77.8244 28.305C76.9437 27.4065 75.8929 26.6953 74.7344 26.2135C73.5758 25.7317 72.3331 25.489 71.0798 25.5C69.7561 25.4481 68.4357 25.6659 67.1977 26.1404C65.9596 26.615 64.8293 27.3364 63.8747 28.2615C62.92 29.1866 62.1605 30.2964 61.6417 31.5243C61.1229 32.7522 60.8555 34.073 60.8555 35.4075C60.8555 36.742 61.1229 38.0628 61.6417 39.2907C62.1605 40.5186 62.92 41.6284 63.8747 42.5535C64.8293 43.4786 65.9596 44.2 67.1977 44.6745C68.4357 45.1491 69.7561 45.3669 71.0798 45.315C72.3542 45.373 73.6261 45.1554 74.8101 44.6767C75.994 44.198 77.0625 43.4695 77.9435 42.54C79.5034 40.8134 80.3362 38.5436 80.2662 36.21C80.271 35.6415 80.2211 35.0738 80.1173 34.515L71.0798 34.59ZM138.541 36.69C138.153 35.5391 137.427 34.5342 136.459 33.8083C135.491 33.0824 134.328 32.6697 133.122 32.625C132.307 32.6234 131.501 32.7901 130.753 33.1148C130.005 33.4395 129.331 33.9153 128.773 34.5128C128.215 35.1103 127.784 35.8168 127.508 36.5886C127.232 37.3604 127.115 38.1811 127.166 39C127.148 39.8384 127.298 40.6718 127.607 41.4505C127.915 42.2293 128.377 42.9373 128.963 43.5324C129.55 44.1274 130.249 44.5973 131.02 44.9139C131.791 45.2305 132.617 45.3873 133.449 45.375C134.491 45.3807 135.517 45.126 136.437 44.6339C137.357 44.1417 138.141 43.4275 138.72 42.555L136.561 41.055C136.239 41.5962 135.783 42.0438 135.237 42.3541C134.692 42.6643 134.076 42.8266 133.449 42.825C132.804 42.8498 132.167 42.6785 131.62 42.3334C131.073 41.9883 130.642 41.4853 130.382 40.89L138.854 37.365L138.541 36.69ZM129.906 38.82C129.876 38.356 129.938 37.8907 130.088 37.4512C130.239 37.0116 130.475 36.6068 130.783 36.2604C131.09 35.914 131.464 35.6329 131.881 35.4336C132.298 35.2344 132.75 35.121 133.211 35.1C133.691 35.0681 134.17 35.1791 134.589 35.4191C135.007 35.6591 135.346 36.0175 135.564 36.45L129.906 38.82ZM123.027 45H125.811V26.25H123.027V45ZM118.471 34.05H118.367C117.947 33.5773 117.433 33.1994 116.858 32.9409C116.284 32.6824 115.661 32.5492 115.032 32.55C113.405 32.6295 111.87 33.3366 110.747 34.5249C109.623 35.7131 108.996 37.2913 108.996 38.9325C108.996 40.5737 109.623 42.1519 110.747 43.3401C111.87 44.5284 113.405 45.2355 115.032 45.315C115.663 45.3257 116.288 45.1969 116.864 44.9378C117.441 44.6786 117.954 44.2954 118.367 43.815H118.456V44.73C118.456 47.175 117.161 48.48 115.076 48.48C114.382 48.4636 113.708 48.2395 113.141 47.8361C112.574 47.4328 112.138 46.8685 111.89 46.215L109.463 47.235C109.92 48.3545 110.699 49.3111 111.699 49.9819C112.699 50.6527 113.875 51.0072 115.076 51C118.337 51 121.032 49.065 121.032 44.355V33H118.471V34.05ZM115.285 42.87C114.324 42.7847 113.431 42.3401 112.779 41.6238C112.128 40.9074 111.767 39.9713 111.767 39C111.767 38.0287 112.128 37.0926 112.779 36.3762C113.431 35.6599 114.324 35.2153 115.285 35.13C115.761 35.1546 116.228 35.275 116.657 35.484C117.086 35.6931 117.47 35.9866 117.784 36.3472C118.099 36.7079 118.34 37.1284 118.491 37.584C118.642 38.0396 118.701 38.521 118.665 39C118.705 39.481 118.649 39.9654 118.498 40.4237C118.348 40.8821 118.106 41.3049 117.789 41.6667C117.472 42.0284 117.085 42.3216 116.652 42.5284C116.219 42.7353 115.749 42.8515 115.27 42.87H115.285ZM151.584 26.25H144.929V45H147.713V37.89H151.599C152.392 37.9474 153.189 37.8396 153.939 37.5731C154.69 37.3066 155.377 36.8873 155.96 36.3412C156.542 35.7952 157.007 35.1341 157.324 34.3992C157.642 33.6644 157.806 32.8715 157.806 32.07C157.806 31.2685 157.642 30.4756 157.324 29.7407C157.007 29.0059 156.542 28.3448 155.96 27.7988C155.377 27.2527 154.69 26.8334 153.939 26.5669C153.189 26.3004 152.392 26.1926 151.599 26.25H151.584ZM151.584 35.25H147.698V28.86H151.644C152.491 28.86 153.303 29.199 153.902 29.8024C154.501 30.4058 154.837 31.2242 154.837 32.0775C154.837 32.9308 154.501 33.7492 153.902 34.3526C153.303 34.956 152.491 35.295 151.644 35.295L151.584 35.25ZM168.751 32.55C167.737 32.489 166.728 32.7276 165.847 33.2366C164.966 33.7456 164.252 34.5027 163.793 35.415L166.264 36.45C166.508 35.9975 166.877 35.6262 167.326 35.3812C167.776 35.1362 168.286 35.028 168.796 35.07C169.149 35.0284 169.507 35.0581 169.849 35.1575C170.191 35.2568 170.51 35.4238 170.787 35.6486C171.064 35.8734 171.294 36.1515 171.463 36.4668C171.633 36.7821 171.738 37.1283 171.773 37.485V37.68C170.879 37.203 169.882 36.9557 168.87 36.96C166.205 36.96 163.51 38.46 163.51 41.175C163.536 41.7539 163.678 42.3216 163.925 42.8446C164.173 43.3675 164.523 43.8351 164.953 44.2197C165.383 44.6043 165.886 44.898 166.431 45.0836C166.976 45.2691 167.552 45.3427 168.126 45.3C168.827 45.3507 169.528 45.2104 170.157 44.8936C170.786 44.5769 171.318 44.0955 171.699 43.5H171.788V45H174.468V37.785C174.468 34.5 171.997 32.595 168.825 32.595L168.751 32.55ZM168.408 42.825C167.5 42.825 166.235 42.36 166.235 41.235C166.235 39.735 167.813 39.24 169.212 39.24C170.097 39.218 170.971 39.4356 171.744 39.87C171.65 40.6821 171.269 41.4329 170.67 41.9842C170.071 42.5355 169.294 42.8501 168.483 42.87L168.408 42.825ZM184.235 33L181.049 41.13H180.96L177.654 33H174.677L179.635 44.37L176.806 50.685H179.709L187.332 33H184.235ZM159.207 45H161.991V26.25H159.207V45Z" fill="white"/>
<path d="M62.6974 21.405H61.5957V18.405H62.5337C62.9614 17.9484 63.2844 17.4028 63.4799 16.8066C63.6754 16.2105 63.7387 15.5784 63.6652 14.955V10.5H69.6208V18.39H70.6183V21.39H69.5166V19.5H62.6974V21.405ZM64.767 15C64.8365 16.21 64.5406 17.4127 63.9183 18.45H68.385V11.61H64.767V15ZM79.5219 18.33C78.6515 19.202 77.4739 19.6915 76.2463 19.6915C75.0188 19.6915 73.8412 19.202 72.9708 18.33C72.1247 17.4278 71.6534 16.2337 71.6534 14.9925C71.6534 13.7513 72.1247 12.5572 72.9708 11.655C73.3998 11.2196 73.9101 10.8741 74.4723 10.6382C75.0344 10.4024 75.6374 10.281 76.2463 10.281C76.8553 10.281 77.4582 10.4024 78.0204 10.6382C78.5826 10.8741 79.0929 11.2196 79.5219 11.655C80.3713 12.5555 80.8449 13.7503 80.8449 14.9925C80.8449 16.2347 80.3713 17.4295 79.5219 18.33ZM73.8194 17.58C74.464 18.2267 75.3367 18.5898 76.2463 18.5898C77.156 18.5898 78.0286 18.2267 78.6732 17.58C79.3093 16.8735 79.6617 15.9538 79.6617 15C79.6617 14.0462 79.3093 13.1265 78.6732 12.42C78.0286 11.7733 77.156 11.4102 76.2463 11.4102C75.3367 11.4102 74.464 11.7733 73.8194 12.42C73.1833 13.1265 72.831 14.0462 72.831 15C72.831 15.9538 73.1833 16.8735 73.8194 17.58ZM86.6239 19.695C86.0092 19.7073 85.3985 19.5942 84.8284 19.3624C84.2583 19.1306 83.7406 18.785 83.3066 18.3463C82.8726 17.9077 82.5312 17.3851 82.303 16.81C82.0747 16.2349 81.9644 15.6192 81.9785 15C81.9644 14.3808 82.0747 13.7651 82.303 13.19C82.5312 12.6149 82.8726 12.0923 83.3066 11.6537C83.7406 11.215 84.2583 10.8694 84.8284 10.6376C85.3985 10.4058 86.0092 10.2927 86.6239 10.305C87.2469 10.2895 87.8653 10.4163 88.4326 10.6761C88.9999 10.9359 89.5014 11.3219 89.8994 11.805L89.0954 12.585C88.8014 12.2089 88.4222 11.9091 87.9896 11.7108C87.5571 11.5125 87.0837 11.4213 86.609 11.445C86.152 11.433 85.6973 11.5146 85.2725 11.6848C84.8477 11.8549 84.4615 12.1102 84.1374 12.435C83.4919 13.1457 83.1339 14.0741 83.1339 15.0375C83.1339 16.0009 83.4919 16.9293 84.1374 17.64C84.4615 17.9648 84.8477 18.2201 85.2725 18.3902C85.6973 18.5604 86.152 18.642 86.609 18.63C87.1331 18.6253 87.6495 18.503 88.1208 18.2721C88.5921 18.0412 89.0064 17.7074 89.3337 17.295L90.1377 18.105C89.7324 18.6002 89.2242 18.9996 88.6488 19.275C88.0132 19.565 87.3215 19.7085 86.6239 19.695ZM94.8128 19.5H93.6663V11.61H91.165V10.5H97.2992V11.61H94.8128V19.5ZM105.19 10.5L101.811 18.09C101.675 18.539 101.405 18.9346 101.037 19.2221C100.669 19.5096 100.221 19.6748 99.7559 19.695C99.4481 19.6911 99.1443 19.6247 98.8626 19.5L99.1603 18.435C99.3413 18.5411 99.5465 18.598 99.7559 18.6C99.9747 18.6166 100.193 18.5642 100.381 18.45C100.561 18.297 100.699 18.101 100.783 17.88L101.111 17.16L98.133 10.515H99.4879L101.691 15.675L103.835 10.5H105.19ZM106.486 19.5V10.5H112.947V19.5H111.801V11.61H107.632V19.5H106.486ZM114.987 19.5V10.5H116.134V14.355H120.6V10.5H121.747V19.5H120.6V15.435H116.134V19.5H114.987ZM131.112 18.33C130.241 19.202 129.064 19.6915 127.836 19.6915C126.609 19.6915 125.431 19.202 124.561 18.33C123.715 17.4278 123.243 16.2337 123.243 14.9925C123.243 13.7513 123.715 12.5572 124.561 11.655C124.99 11.2196 125.5 10.8741 126.062 10.6382C126.624 10.4024 127.227 10.281 127.836 10.281C128.445 10.281 129.048 10.4024 129.61 10.6382C130.173 10.8741 130.683 11.2196 131.112 11.655C131.961 12.5555 132.435 13.7503 132.435 14.9925C132.435 16.2347 131.961 17.4295 131.112 18.33ZM125.409 17.58C126.054 18.2267 126.927 18.5898 127.836 18.5898C128.746 18.5898 129.619 18.2267 130.263 17.58C130.899 16.8735 131.252 15.9538 131.252 15C131.252 14.0462 130.899 13.1265 130.263 12.42C129.619 11.7733 128.746 11.4102 127.836 11.4102C126.927 11.4102 126.054 11.7733 125.409 12.42C124.773 13.1265 124.421 14.0462 124.421 15C124.421 15.9538 124.773 16.8735 125.409 17.58ZM137.112 19.5V10.5H140.343C141.014 10.4872 141.664 10.7342 142.159 11.19C142.408 11.4075 142.607 11.6775 142.74 11.9807C142.874 12.284 142.94 12.6132 142.934 12.945C142.941 13.3448 142.826 13.7373 142.606 14.07C142.387 14.3931 142.083 14.6478 141.728 14.805C142.16 14.949 142.538 15.2208 142.815 15.585C143.101 15.9525 143.253 16.4079 143.246 16.875C143.254 17.2208 143.186 17.564 143.047 17.8803C142.908 18.1966 142.701 18.4782 142.442 18.705C141.924 19.1868 141.242 19.4498 140.537 19.44L137.112 19.5ZM138.259 14.355H140.343C140.538 14.3632 140.732 14.3285 140.912 14.2534C141.092 14.1782 141.253 14.0645 141.385 13.92C141.517 13.7996 141.623 13.6536 141.698 13.4909C141.773 13.3281 141.814 13.1519 141.82 12.9727C141.825 12.7935 141.795 12.6151 141.73 12.4479C141.666 12.2808 141.569 12.1285 141.445 12C141.32 11.8582 141.166 11.7457 140.994 11.6706C140.822 11.5954 140.635 11.5593 140.447 11.565H138.318L138.259 14.355ZM138.259 18.39H140.566C140.768 18.3968 140.969 18.3587 141.154 18.2783C141.339 18.1979 141.505 18.0773 141.638 17.925C141.901 17.6507 142.05 17.286 142.055 16.905C142.055 16.5072 141.898 16.1256 141.619 15.8443C141.34 15.563 140.961 15.405 140.566 15.405H138.303L138.259 18.39Z" fill="white"/>
<path fill-rule="evenodd" clip-rule="evenodd" d="M76.2463 10.431C75.657 10.431 75.0735 10.5485 74.5295 10.7767C73.986 11.0047 73.4927 11.3386 73.0777 11.7594C72.2586 12.6336 71.8023 13.7903 71.8023 14.9925C71.8023 16.1946 72.2585 17.3511 73.0774 18.2253C73.9198 19.0683 75.0589 19.5415 76.2463 19.5415C77.4338 19.5415 78.573 19.0683 79.4154 18.2251C80.2376 17.3527 80.696 16.1956 80.696 14.9925C80.696 13.7893 80.2375 12.632 79.4151 11.7595C79.0001 11.3387 78.5067 11.0047 77.9632 10.7767C77.4191 10.5485 76.8356 10.431 76.2463 10.431ZM74.415 10.4998C74.9954 10.2564 75.6177 10.131 76.2463 10.131C76.8749 10.131 77.4973 10.2564 78.0776 10.4998C78.6579 10.7432 79.1847 11.0999 79.6276 11.5493L79.6298 11.5516C80.5055 12.48 80.9938 13.7118 80.9938 14.9925C80.9938 16.2732 80.5055 17.5049 79.6298 18.4333L79.6269 18.4364C78.7286 19.3364 77.5132 19.8415 76.2463 19.8415C74.9795 19.8415 73.7641 19.3363 72.8658 18.4364L72.8625 18.4331C71.9904 17.503 71.5045 16.272 71.5045 14.9925C71.5045 13.713 71.9904 12.482 72.8625 11.552L72.8651 11.5493C73.3079 11.0999 73.8347 10.7432 74.415 10.4998ZM127.836 10.431C127.247 10.431 126.664 10.5485 126.119 10.7767C125.576 11.0047 125.083 11.3386 124.668 11.7593C123.849 12.6335 123.392 13.7902 123.392 14.9925C123.392 16.1946 123.849 17.3511 124.667 18.2253C125.51 19.0683 126.649 19.5415 127.836 19.5415C129.024 19.5415 130.163 19.0682 131.005 18.225C131.828 17.3526 132.286 16.1955 132.286 14.9925C132.286 13.7893 131.827 12.632 131.005 11.7595C130.59 11.3387 130.097 11.0047 129.553 10.7767C129.009 10.5485 128.426 10.431 127.836 10.431ZM126.005 10.4998C126.585 10.2564 127.208 10.131 127.836 10.131C128.465 10.131 129.087 10.2564 129.668 10.4998C130.248 10.7432 130.775 11.0999 131.218 11.5493L131.22 11.5516C132.095 12.48 132.584 13.7118 132.584 14.9925C132.584 16.2732 132.095 17.5049 131.22 18.4333L131.217 18.4364C130.319 19.3364 129.103 19.8415 127.836 19.8415C126.569 19.8415 125.354 19.3363 124.456 18.4364L124.452 18.4331C123.58 17.503 123.095 16.272 123.095 14.9925C123.095 13.713 123.58 12.482 124.453 11.552L124.455 11.5493C124.898 11.0999 125.425 10.7432 126.005 10.4998ZM88.371 10.8127C87.8241 10.5623 87.2281 10.44 86.6276 10.4549L86.6209 10.4551C86.0264 10.4432 85.4356 10.5525 84.8841 10.7767C84.3326 11.0009 83.8319 11.3352 83.4121 11.7596C82.9922 12.1839 82.662 12.6894 82.4412 13.2457C82.2204 13.802 82.1137 14.3976 82.1274 14.9965L82.1276 15.0035C82.1138 15.6024 82.2204 16.198 82.4412 16.7543C82.662 17.3106 82.9922 17.8161 83.4121 18.2404C83.8319 18.6647 84.3326 18.9991 84.8841 19.2233C85.4356 19.4475 86.0264 19.5569 86.6209 19.545L86.6239 19.695L86.6267 19.545C87.3017 19.5581 87.9711 19.4193 88.5861 19.1389C89.1006 18.8925 89.5595 18.5433 89.9352 18.1132L89.3434 17.5169C89.0207 17.8879 88.6273 18.1907 88.1859 18.407C87.6951 18.6475 87.1573 18.7749 86.6116 18.78C86.1349 18.7923 85.6606 18.7071 85.2175 18.5296C84.7739 18.352 84.3708 18.0855 84.0324 17.7463L84.0275 17.7414C83.3568 17.003 82.985 16.0383 82.985 15.0375C82.985 14.0367 83.3569 13.0721 84.0276 12.3337L84.0323 12.3285C84.3707 11.9894 84.7739 11.723 85.2175 11.5454C85.6593 11.3684 86.132 11.2832 86.6073 11.2949C87.1038 11.271 87.5988 11.3668 88.0513 11.5743C88.4556 11.7596 88.8155 12.0294 89.1075 12.365L89.6948 11.7953C89.3267 11.3788 88.8759 11.0439 88.371 10.8127ZM86.6239 19.845C85.9902 19.8573 85.3605 19.7405 84.7726 19.5015C84.1839 19.2621 83.6494 18.9052 83.2012 18.4522C82.753 17.9992 82.4004 17.4595 82.1647 16.8657C81.9294 16.2728 81.8155 15.6383 81.8296 15C81.8155 14.3617 81.9294 13.7271 82.1647 13.1343C82.4004 12.5404 82.753 12.0008 83.2012 11.5478C83.6494 11.0948 84.1839 10.7379 84.7726 10.4985C85.3604 10.2596 85.9899 10.1427 86.6235 10.155C87.2679 10.1394 87.9074 10.2709 88.4942 10.5396C89.082 10.8088 89.6016 11.2087 90.014 11.7092L90.1023 11.8164L89.0802 12.808L88.9785 12.6778C88.6991 12.3205 88.3389 12.0357 87.928 11.8473C87.517 11.6589 87.0673 11.5723 86.6164 11.5948L86.6051 11.5954C86.1682 11.5839 85.7336 11.6615 85.3275 11.8241C84.9225 11.9864 84.5542 12.2295 84.2449 12.5389C83.626 13.2216 83.2828 14.1128 83.2828 15.0375C83.2828 15.9622 83.626 16.8534 84.2449 17.5361C84.5542 17.8455 84.9225 18.0886 85.3275 18.2508C85.7336 18.4135 86.1682 18.4915 86.6051 18.48L86.6077 18.48C87.1096 18.4755 87.6043 18.3584 88.0557 18.1372C88.5071 17.916 88.9039 17.5963 89.2174 17.2013L89.3213 17.0704L90.3386 18.0953L90.2525 18.2004C89.8334 18.7126 89.3078 19.1257 88.7127 19.4105L88.7102 19.4117C88.0554 19.7105 87.3427 19.8585 86.6239 19.845ZM142.059 11.3008C141.592 10.8709 140.979 10.6379 140.346 10.65L140.343 10.65H137.261V19.3474L140.534 19.29L140.539 19.29C141.206 19.2993 141.851 19.0505 142.341 18.5947L142.345 18.5917C142.587 18.3793 142.781 18.1157 142.911 17.8196C143.041 17.5235 143.105 17.2021 143.097 16.8783L143.097 16.8728C143.104 16.44 142.963 16.0181 142.697 15.6776L142.696 15.6761C142.438 15.3359 142.084 15.082 141.681 14.9474L141.313 14.8246L141.668 14.6676C141.997 14.5219 142.28 14.2858 142.483 13.9862C142.686 13.6791 142.791 13.3167 142.785 12.9476V12.9421C142.791 12.6322 142.729 12.3248 142.604 12.0417C142.479 11.7585 142.294 11.5064 142.062 11.3033L142.059 11.3008ZM142.259 11.078C141.735 10.5974 141.049 10.3369 140.342 10.35H136.963V19.6526L140.534 19.59L140.537 19.59C141.279 19.5998 141.996 19.3231 142.542 18.8168C142.817 18.5757 143.035 18.2768 143.183 17.941C143.33 17.6055 143.403 17.2414 143.395 16.8745L143.395 16.8772L143.246 16.875L143.395 16.8717L143.395 16.8745C143.402 16.3743 143.239 15.8868 142.932 15.4931C142.705 15.1932 142.412 14.9521 142.078 14.7873C142.335 14.6243 142.557 14.4092 142.729 14.1545L142.73 14.1532C142.967 13.7959 143.09 13.3745 143.083 12.9451L143.083 12.9479L142.934 12.945L143.083 12.9424L143.083 12.9451C143.089 12.5923 143.019 12.2423 142.876 11.9198C142.734 11.5971 142.523 11.3097 142.259 11.078ZM63.5163 10.35H69.7697V18.24H70.7672V21.54H69.3677V19.65H62.8463V21.555H61.4468V18.255H62.4688C62.86 17.8241 63.1565 17.3145 63.3385 16.7596C63.5272 16.1843 63.5883 15.5743 63.5174 14.9727L63.5163 14.9639V10.35ZM63.8141 10.65V14.9462C63.8885 15.5886 63.8227 16.2396 63.6213 16.8537C63.4189 17.4707 63.0846 18.0354 62.642 18.5079L62.5979 18.555H61.7446V21.255H62.5486V19.35H69.6654V21.24H70.4694V18.54H69.4719V10.65H63.8141ZM91.0161 10.35H97.4481V11.76H94.9617V19.65H93.5174V11.76H91.0161V10.35ZM91.3139 10.65V11.46H93.8152V19.35H94.6639V11.46H97.1503V10.65H91.3139ZM103.736 10.35H105.42L101.95 18.1428C101.805 18.6177 101.518 19.036 101.128 19.3406C100.736 19.6472 100.258 19.8234 99.7623 19.8449L99.754 19.8452C99.4263 19.841 99.1027 19.7702 98.8027 19.6373L98.6841 19.5849L99.0691 18.2079L99.2353 18.3054C99.3938 18.3984 99.5738 18.4483 99.7573 18.45L99.7671 18.4501C99.9512 18.4641 100.135 18.4215 100.294 18.3276C100.45 18.1921 100.57 18.0198 100.644 17.8261L100.648 17.8174L100.947 17.1595L97.9024 10.365H99.5859L101.689 15.2906L103.736 10.35ZM103.935 10.65L101.694 16.0594L99.3899 10.665H98.3636L101.274 17.1605L100.92 17.9383C100.827 18.181 100.675 18.3963 100.477 18.5645L100.468 18.5722L100.458 18.5784C100.245 18.7079 99.9976 18.7677 99.7496 18.7499C99.5794 18.7477 99.4118 18.7132 99.2552 18.6488L99.042 19.4113C99.2697 19.4961 99.5103 19.5414 99.7536 19.5449C100.187 19.5253 100.603 19.3711 100.946 19.1035C101.289 18.8351 101.542 18.4657 101.668 18.0464L101.671 18.0373L104.96 10.65H103.935ZM106.337 10.35H113.096V19.65H111.652V11.76H107.781V19.65H106.337V10.35ZM106.635 10.65V19.35H107.483V11.46H111.95V19.35H112.799V10.65H106.635ZM114.838 10.35H116.283V14.205H120.451V10.35H121.896V19.65H120.451V15.585H116.283V19.65H114.838V10.35ZM115.136 10.65V19.35H115.985V15.285H120.749V19.35H121.598V10.65H120.749V14.505H115.985V10.65H115.136ZM73.7144 12.3137C74.3869 11.639 75.2973 11.2602 76.2463 11.2602C77.1954 11.2602 78.1058 11.639 78.7783 12.3137L78.7836 12.3191C79.4446 13.0532 79.8106 14.0089 79.8106 15C79.8106 15.9911 79.4445 16.9467 78.7835 17.6808L78.7784 17.6864C78.1059 18.3611 77.1954 18.7398 76.2463 18.7398C75.2973 18.7398 74.3869 18.361 73.7144 17.6863L73.8194 17.58L73.7092 17.6808C73.0482 16.9467 72.6821 15.9911 72.6821 15C72.6821 14.0089 73.0482 13.0533 73.7092 12.3192L73.7144 12.3137ZM73.9272 17.4764C74.5436 18.0934 75.3773 18.4398 76.2463 18.4398C77.1154 18.4398 77.9491 18.0934 78.5655 17.4764C79.1751 16.7979 79.5128 15.9153 79.5128 15C79.5128 14.0847 79.1751 13.2021 78.5655 12.5236C77.9491 11.9066 77.1154 11.5602 76.2463 11.5602C75.3773 11.5602 74.5436 11.9066 73.9272 12.5236C73.3175 13.2021 72.9799 14.0847 72.9799 15C72.9799 15.9153 73.3175 16.7979 73.9272 17.4764ZM125.304 12.3137C125.977 11.639 126.887 11.2602 127.836 11.2602C128.785 11.2602 129.696 11.639 130.368 12.3137L130.374 12.3191C131.035 13.0532 131.401 14.0089 131.401 15C131.401 15.9911 131.034 16.9467 130.373 17.6808L130.368 17.6864C129.696 18.3611 128.785 18.7398 127.836 18.7398C126.887 18.7398 125.977 18.361 125.304 17.6863L125.409 17.58L125.299 17.6808C124.638 16.9467 124.272 15.9911 124.272 15C124.272 14.0089 124.638 13.0533 125.299 12.3192L125.304 12.3137ZM125.517 17.4764C126.134 18.0934 126.967 18.4398 127.836 18.4398C128.705 18.4398 129.539 18.0934 130.155 17.4764C130.765 16.7979 131.103 15.9153 131.103 15C131.103 14.0847 130.765 13.2021 130.155 12.5236C129.539 11.9066 128.705 11.5602 127.836 11.5602C126.967 11.5602 126.134 11.9066 125.517 12.5236C124.908 13.2021 124.57 14.0847 124.57 15C124.57 15.9153 124.908 16.7979 125.517 17.4764ZM140.445 11.415C140.654 11.409 140.861 11.4493 141.053 11.5329C141.245 11.6164 141.416 11.741 141.554 11.898C141.691 12.0404 141.798 12.2089 141.869 12.3937C141.941 12.5796 141.975 12.7781 141.968 12.9774C141.962 13.1767 141.916 13.3728 141.833 13.5538C141.751 13.7328 141.635 13.8935 141.49 14.0265C141.345 14.1847 141.167 14.3093 140.969 14.392C140.77 14.475 140.555 14.5136 140.34 14.505H138.106L138.172 11.415H140.445ZM140.935 11.8082C140.783 11.7418 140.618 11.7099 140.452 11.7149L140.447 11.715H138.464L138.411 14.205H140.349C140.522 14.2123 140.695 14.1816 140.855 14.1148C141.015 14.048 141.158 13.9469 141.276 13.8185L141.28 13.8134L141.285 13.8089C141.402 13.702 141.497 13.5724 141.563 13.428C141.629 13.2835 141.666 13.1271 141.671 12.968C141.676 12.809 141.649 12.6506 141.592 12.5022C141.534 12.3539 141.448 12.2186 141.338 12.1046L141.333 12.0995C141.223 11.9742 141.087 11.8746 140.935 11.8082ZM64.6181 11.46H68.5339V18.6H63.6544L63.7909 18.3724C64.3976 17.3611 64.6861 16.1884 64.6184 15.0087L64.6179 15L64.6181 11.46ZM64.9159 11.76V14.9957C64.9812 16.1469 64.7238 17.2916 64.1758 18.3H68.2361V11.76H64.9159ZM138.157 15.255H140.566C141.001 15.255 141.417 15.4288 141.724 15.7383C142.032 16.0477 142.204 16.4674 142.204 16.905L142.204 16.9071C142.198 17.3252 142.035 17.7254 141.748 18.0269C141.6 18.1945 141.417 18.3274 141.213 18.416C141.008 18.5048 140.787 18.5471 140.564 18.54H138.107L138.157 15.255ZM138.45 15.555L138.41 18.24H140.571C140.751 18.2461 140.93 18.2122 141.095 18.1405C141.26 18.0689 141.408 17.9613 141.527 17.8256L141.531 17.8208C141.767 17.5741 141.901 17.2464 141.906 16.9039C141.906 16.5463 141.765 16.2033 141.514 15.9504C141.263 15.6972 140.922 15.555 140.566 15.555H138.45Z" fill="white"/>
<path d="M15.7009 49.0476L33.9407 29.9882L15.7162 10.963C15.2295 11.2592 14.9282 11.945 14.9282 12.8427V47.186C14.9348 48.0838 15.2251 48.7195 15.7009 49.0476Z" fill="white"/>
<path d="M34.5942 29.4619L40.0272 23.7839L17.902 11.1065C17.5295 10.8803 17.1063 10.7608 16.6753 10.7602L34.592 29.4596L34.5942 29.4619Z" fill="white"/>
<path d="M34.5941 30.5168L16.6206 49.2982C17.0717 49.3061 17.5161 49.183 17.9041 48.9428L40.073 36.2312L34.5941 30.5168Z" fill="white"/>
<path d="M48.0423 28.3842L40.6796 24.1576L35.0981 29.9905L40.7211 35.8598L48.0401 31.6446C49.5965 30.7492 49.5965 29.275 48.0423 28.3842Z" fill="white"/>
</svg>
