<svg version="1.0" xmlns="http://www.w3.org/2000/svg" width="398" height="386" viewBox="0 0 3980 3860"><path d="M2330 3759c-380-285-757-662-993-992l-56-78-10 38c-46 177-71 266-74 270-3 2-23 1-45-3-48-8-32 53-133-484-39-212-73-386-74-388-1-1-152 70-334 158-183 88-335 160-338 160-8 0-52-55-53-65 0-5 99-134 219-285s216-278 212-281c-3-4-148-30-321-59s-318-56-322-59 139-71 317-151c310-139 323-146 311-165-379-574-452-689-463-732-6-26 20-63 45-63 7 0 98 67 200 148 254 202 576 444 579 435 1-5 61-260 133-568C1268 4 1268 5 1275 12c2 2 66 206 141 454 74 247 136 449 137 450s166-99 367-222l365-223 32 31c18 17 29 36 26 42-4 6-91 120-194 253l-187 241 51 17c161 53 332 177 430 313l31 43 25-33c51-66 147-161 208-204 72-52 202-114 293-139 99-28 290-26 394 3 356 102 577 425 576 844 0 73-7 143-19 199-95 427-501 981-1086 1480-155 132-374 299-392 299-5 0-69-46-143-101zM1150 2468c-33-62-60-108-60-103 0 6 16 93 35 194 19 100 35 188 36 194 0 7 12-29 25-80l24-92-60-113zm-439-342l267-128 5-152c3-110 10-173 26-231 62-232 211-425 401-518l85-42-105-348c-63-209-107-341-111-330-3 10-54 226-114 481-60 254-112 462-117 462-6 0-334-244-615-459l-45-34 38 59c21 32 108 165 194 294s159 240 162 245c4 6-90 54-227 115-129 58-231 107-227 111 4 3 108 22 232 43s235 40 248 44c20 6 6 27-178 260-110 139-200 255-200 258s3 4 8 2c4-2 127-62 273-132zm953-1107c44-6 106-9 138-6l58 5 116-151c65-84 122-158 128-166s7-12 1-9c-43 24-561 342-565 346-3 3 6 2 20-2 14-3 61-11 104-17z" fill="#fd6008"/><path d="M1138 2993c-32-5-20 42-119-483-39-212-73-386-74-388-1-1-152 70-334 158-183 88-335 160-338 160-8 0-52-55-53-65 0-5 99-134 219-285s216-278 212-281c-3-4-148-30-321-59s-318-56-322-59 139-71 317-151c310-139 323-146 311-165-379-574-452-689-463-732-6-26 20-63 45-63 7 0 98 67 200 148 254 202 576 444 579 435 1-5 61-260 133-568C1268 4 1268 5 1275 12c2 2 66 206 141 454 74 247 136 449 137 450s160-95 352-213c193-118 357-218 366-223 12-7 24-1 48 24l31 32-182 236c-180 232-452 582-470 605-7 9 28 24 132 57 168 54 312 85 432 93 69 5 91 10 105 25 20 23 10 46-28 65-22 11-630 83-699 83-17 0-33 6-35 13-3 7 53 141 123 299l129 287-35 25-35 25-37-32c-21-18-98-87-173-155l-136-123-10 38c-6 21-55 218-109 438-55 220-105 419-111 443-12 43-13 44-73 35zm137-663c58-228 109-423 113-433 6-14 29 2 137 99 72 64 138 123 147 131s-34-99-97-238c-62-140-112-255-111-257 2-1 115-14 252-27 137-14 254-27 259-29 6-2-10-9-35-15-63-16-300-97-350-120l-41-18 157-204c87-112 209-271 272-354 63-82 120-156 126-164 15-19 21-23-314 182-157 96-288 172-291 168-4-3-53-160-110-349-63-208-106-336-109-325-4 10-55 226-115 481-60 254-112 462-117 462-6 0-334-244-615-459l-45-34 38 59c21 32 108 165 194 294s159 240 162 245c4 6-90 54-227 115-129 58-231 107-227 111 4 3 108 22 232 43s235 40 248 44c20 6 6 27-179 261-110 139-199 255-196 257 2 2 129-57 282-131s283-135 290-135 16 20 20 46c3 26 33 180 65 343s61 316 65 341c5 25 9 41 11 35 2-5 51-197 109-425z" fill="#ffc2c5"/></svg>