<svg width="411" height="394" viewBox="0 0 411 394" fill="none" xmlns="http://www.w3.org/2000/svg">
<path d="M330.463 109.367C316.455 110.021 302.806 114.019 290.655 121.029C278.503 128.039 268.201 137.858 260.609 149.665C253.016 137.858 242.714 128.039 230.563 121.029C218.412 114.019 204.763 110.021 190.755 109.367C140.944 109.367 111.028 148.317 111.028 196.405C111.028 267.563 207.657 358.496 260.609 394C313.561 358.496 410.19 267.563 410.19 196.405C410.19 148.317 380.274 109.367 330.463 109.367Z" fill="#FD6008"/>
<path fill-rule="evenodd" clip-rule="evenodd" d="M129.317 285.591L152.089 195.606L182.023 222.442L158.968 170.945L165.11 170.342L165.542 174.768C165.11 170.342 165.109 170.342 165.11 170.342L166.18 170.236C166.878 170.167 167.9 170.066 169.194 169.937C171.782 169.68 175.46 169.312 179.82 168.87C188.54 167.987 199.982 166.81 210.875 165.633C211.403 165.576 211.929 165.519 212.453 165.462C206.95 164.14 201.687 162.643 196.93 161.161C190.058 159.02 184.144 156.881 179.943 155.275C177.842 154.472 176.166 153.801 175.01 153.329C174.432 153.092 173.984 152.906 173.678 152.777C173.525 152.712 173.407 152.662 173.326 152.628L173.232 152.588L173.198 152.573L173.196 152.572C173.195 152.572 173.194 152.572 174.948 148.486L173.194 152.572L167.93 150.301L225.862 75.4104L162.915 113.743L141.331 42.3251L118.258 140.48L112.857 136.526L115.474 132.934C112.857 136.526 112.858 136.526 112.857 136.526L112.855 136.524L112.848 136.519L112.286 136.107C111.913 135.833 111.362 135.428 110.651 134.905C109.228 133.857 107.163 132.333 104.59 130.425C99.4451 126.609 92.2697 121.258 84.1457 115.115C73.7382 107.244 61.7493 98.0539 50.4706 89.1169C53.7074 94.1865 57.3593 99.8102 61.0953 105.511C67.7514 115.667 74.6459 126.025 79.8782 133.846C82.4939 137.756 84.6932 141.03 86.2384 143.327C87.0109 144.475 87.6199 145.379 88.0356 145.995L88.6724 146.939C88.6728 146.94 88.673 146.94 84.9993 149.434L88.6724 146.939L91.6363 151.326L43.0262 173.157L95.9536 182.192L53.7022 235.629L114.317 206.41L129.317 285.591ZM78.369 147.538C76.8625 145.298 74.8523 142.303 72.5085 138.8C67.268 130.967 60.3564 120.584 53.6789 110.395C47.0095 100.218 40.5448 90.1905 36.2129 83.0868C34.0712 79.5745 32.3614 76.6324 31.4231 74.7215C31.1844 74.2354 30.9571 73.7388 30.7789 73.2711L30.776 73.2634C30.6603 72.9598 30.3303 72.0939 30.3192 71.097C30.3145 70.6657 30.3402 69.113 31.6186 67.7984C33.1565 66.2168 35.0625 66.3541 35.885 66.5374C36.6771 66.7139 37.2562 67.0613 37.5047 67.2185C37.8144 67.4143 38.0808 67.6226 38.2861 67.7943C53.3436 80.3775 73.2794 95.7549 89.4898 108.014C97.5869 114.137 104.74 119.471 109.867 123.274C110.894 124.035 111.839 124.735 112.694 125.368L140.259 8.10123L168.09 100.184L241.783 55.3073L247.593 61.8335L182.053 146.56C182.39 146.69 182.74 146.825 183.105 146.964C187.172 148.519 192.906 150.593 199.563 152.667C212.971 156.843 229.741 160.894 244.087 160.894C244.67 160.894 245.192 160.903 245.634 160.927C245.96 160.945 246.609 160.984 247.236 161.154C247.42 161.204 247.738 161.3 248.101 161.478C248.393 161.621 249.153 162.022 249.779 162.882C250.582 163.985 250.908 165.511 250.391 167.001C249.988 168.16 249.235 168.812 248.947 169.044C248.348 169.525 247.744 169.753 247.581 169.814L247.572 169.817C247.31 169.916 247.06 169.989 246.868 170.041C245.575 170.39 242.932 170.793 239.76 171.222C233.148 172.114 222.732 173.298 211.826 174.476C200.905 175.656 189.442 176.836 180.712 177.72C177.391 178.056 174.465 178.35 172.114 178.585L198.657 237.871L191.651 243.007L157.089 212.022L132.994 307.234L124.335 306.971L107.754 219.443L40.1719 252.021L34.7721 245.25L79.6918 188.439L12.7434 177.011L78.369 147.538ZM39.0401 70.0147C39.0414 70.015 39.0521 70.0431 39.0674 70.095C39.0465 70.04 39.0389 70.0144 39.0401 70.0147ZM245.326 169.822C245.325 169.822 245.316 169.821 245.3 169.819C245.318 169.82 245.326 169.822 245.326 169.822Z" fill="#FFC2C5"/>
</svg>
